<?xml version="1.0" standalone="no"?>
<!DOCTYPE svg PUBLIC "-//W3C//DTD SVG 20010904//EN"
 "http://www.w3.org/TR/2001/REC-SVG-20010904/DTD/svg10.dtd">
<svg version="1.0" xmlns="http://www.w3.org/2000/svg"
 width="400.000000pt" height="400.000000pt" viewBox="0 0 800.000000 800.000000"
 preserveAspectRatio="xMidYMid meet">

<g transform="translate(0.000000,800.000000) scale(0.100000,-0.100000)"
fill="#000000" stroke="none">
<path d="M3790 7594 c-768 -66 -1427 -326 -2000 -788 -106 -86 -356 -332 -463
-455 -452 -524 -761 -1183 -861 -1834 -41 -262 -49 -397 -43 -651 13 -513 89
-878 270 -1306 82 -192 124 -275 235 -460 223 -374 482 -685 762 -919 593
-495 1209 -765 1965 -861 238 -30 629 -31 860 0 656 85 1256 325 1750 698 219
166 512 448 673 650 352 441 630 1024 737 1550 36 178 65 427 71 627 29 853
-263 1697 -831 2410 -571 715 -1367 1170 -2295 1312 -145 22 -203 25 -475 28
-170 1 -330 1 -355 -1z m-48 -244 c43 -13 49 -12 68 5 24 22 26 20 34 -27 5
-34 18 -97 31 -155 8 -35 -8 -27 -34 16 -51 82 -146 116 -245 87 -73 -22 -116
-61 -152 -138 -70 -154 -6 -338 145 -415 146 -76 303 -22 384 132 l16 30 1
-27 c0 -44 -40 -138 -77 -179 -74 -82 -183 -123 -316 -117 -112 4 -182 34
-258 110 -94 94 -134 223 -111 359 15 86 40 137 100 202 113 121 260 162 414
117z m1073 -4 c139 -30 269 -127 323 -243 24 -53 27 -69 27 -173 0 -106 -2
-120 -28 -172 -29 -59 -113 -145 -170 -175 -51 -26 -159 -53 -212 -53 -124 1
-259 57 -349 146 -102 100 -143 232 -113 368 49 227 272 356 522 302z m-2037
-301 c17 -49 29 -91 27 -93 -2 -2 -20 9 -40 24 -46 35 -135 45 -182 21 -42
-22 -61 -71 -42 -106 19 -34 43 -45 182 -81 144 -37 203 -66 255 -125 122
-139 28 -333 -194 -400 -46 -15 -86 -30 -89 -36 -4 -5 -10 -9 -14 -9 -9 0
-101 185 -101 202 0 5 19 -6 43 -25 58 -48 127 -70 175 -57 51 13 82 37 98 75
15 38 9 71 -20 103 -30 34 -59 47 -161 72 -49 12 -110 29 -135 38 -101 36
-160 113 -160 210 0 128 81 209 218 220 55 4 65 8 83 34 12 16 22 28 24 26 1
-2 16 -43 33 -93z m2940 -54 c64 -37 150 -87 191 -111 172 -99 242 -231 185
-346 -26 -51 -63 -76 -123 -82 -28 -2 -51 -6 -51 -9 0 -2 10 -17 21 -32 43
-59 41 -164 -4 -233 -12 -18 -42 -43 -67 -55 -105 -52 -185 -23 -509 182 -118
75 -138 100 -72 89 33 -5 43 -2 69 22 17 16 70 101 118 189 182 337 185 346
134 410 -16 21 -30 39 -30 41 0 13 35 -4 138 -65z m-3452 -262 c21 -23 17 -23
-31 -3 -23 9 -49 13 -67 9 -36 -8 -98 -61 -98 -84 0 -17 108 -171 120 -171 17
0 89 83 95 110 6 26 25 43 25 22 0 -5 20 -32 45 -61 25 -29 45 -56 45 -60 0
-4 -16 -5 -35 -3 -27 3 -44 -2 -70 -22 -51 -39 -59 -60 -38 -93 29 -46 129
-177 146 -191 13 -11 23 -9 61 9 57 26 86 61 86 103 0 62 15 58 50 -15 31 -63
33 -72 18 -80 -21 -12 -249 -180 -323 -238 -30 -24 -58 -41 -61 -38 -3 3 2 19
10 36 34 65 26 84 -107 264 -46 61 -109 149 -141 195 -76 108 -90 118 -156
102 -28 -7 -53 -10 -56 -8 -4 5 231 205 321 272 28 21 56 49 64 63 l13 26 34
-63 c18 -34 41 -71 50 -81z m2234 -309 c422 -71 740 -199 1097 -442 421 -286
818 -786 993 -1251 l33 -88 423 4 c449 4 464 3 464 -42 0 -40 -8 -41 -437 -41
-468 0 -426 9 -399 -86 78 -268 87 -718 21 -1048 -14 -67 -29 -137 -35 -156
-5 -19 -10 -38 -10 -42 0 -5 182 -8 404 -8 239 0 415 -4 430 -10 29 -11 36
-49 13 -69 -10 -7 -147 -12 -447 -13 l-433 -3 -28 -77 c-111 -311 -292 -608
-526 -863 -407 -445 -936 -738 -1533 -850 -124 -23 -131 -24 -281 -34 -497
-31 -964 69 -1409 301 -598 311 -1044 806 -1264 1403 l-44 120 -434 3 c-393 2
-434 4 -446 19 -16 22 -15 38 4 57 13 14 66 16 430 16 391 0 415 1 410 18 -45
151 -76 381 -82 612 -5 173 -3 230 15 366 11 89 30 201 41 248 11 48 20 89 20
91 0 3 -186 5 -413 5 -428 0 -437 1 -437 41 0 42 12 43 457 44 l425 0 42 105
c361 895 1215 1550 2191 1679 135 18 153 19 390 16 177 -3 259 -8 355 -25z
m2308 -285 c1 -11 -34 -119 -79 -240 -105 -284 -197 -557 -205 -606 -8 -49
-10 -47 -113 85 -43 56 -85 107 -94 115 -27 21 -20 31 22 31 l39 0 42 102 c23
56 44 107 46 113 4 9 -80 78 -201 166 -12 9 -148 -35 -153 -49 -1 -5 16 -46
39 -91 23 -45 39 -84 36 -87 -3 -3 -51 36 -107 88 -56 51 -119 106 -141 122
-21 16 -38 31 -36 32 1 2 37 10 80 19 82 17 405 111 667 194 109 34 154 36
158 6z m-5310 -106 c86 -33 229 -89 318 -124 88 -35 183 -69 210 -76 102 -24
106 -9 -47 -169 -76 -79 -141 -141 -145 -137 -6 6 12 75 32 123 4 10 -124 84
-144 84 -4 0 -28 -18 -52 -41 -25 -22 -60 -54 -79 -71 -39 -34 -39 -30 22
-176 l31 -72 50 7 51 6 -42 -49 c-23 -27 -58 -67 -79 -89 l-38 -40 -8 55 c-7
56 -14 73 -187 513 -55 142 -101 264 -101 272 0 16 27 45 41 45 6 0 81 -27
167 -61z m-473 -654 c108 -49 127 -54 166 -49 39 5 49 3 77 -21 52 -44 43
-122 -18 -144 -41 -14 -75 0 -116 47 -18 21 -74 66 -125 101 -113 77 -129 90
-129 108 0 21 14 17 145 -42z m6205 40 c0 -8 -53 -50 -117 -94 -65 -43 -135
-97 -155 -120 -32 -35 -42 -41 -78 -41 -79 0 -117 77 -66 136 21 25 31 28 92
30 58 1 85 9 169 46 146 66 155 68 155 43z m-6172 -481 c24 -17 29 -43 10 -62
-16 -16 -190 -16 -206 0 -19 19 -14 45 10 62 31 22 155 22 186 0z m6202 3 c32
-16 38 -52 11 -67 -12 -6 -58 -10 -107 -8 -76 3 -88 6 -101 25 -13 19 -12 24
6 42 17 17 33 21 94 21 39 0 83 -6 97 -13z m-6289 -517 c5 0 9 -10 9 -22 0
-34 10 -42 71 -61 99 -30 197 -108 184 -146 -13 -42 -44 -36 -95 17 -35 37
-62 55 -97 65 -57 17 -63 10 -58 -63 2 -25 4 -63 4 -85 1 -39 3 -41 49 -57
101 -36 161 -116 162 -214 0 -84 -25 -139 -100 -215 -75 -77 -75 -77 33 -86
79 -7 108 -23 91 -50 -15 -25 -112 -29 -177 -8 -27 9 -51 15 -53 13 -1 -2 -4
-26 -5 -53 -3 -68 -7 -75 -40 -75 -29 0 -29 0 -29 63 0 35 -2 66 -6 69 -3 3
-28 -3 -55 -13 -87 -33 -209 -24 -209 15 0 25 24 34 106 38 105 6 115 13 65
46 -87 59 -140 154 -141 250 0 118 67 196 198 231 l42 12 0 99 c0 114 4 110
-90 81 -47 -15 -71 -30 -105 -67 -44 -47 -45 -47 -65 -29 -28 25 -25 37 18 80
48 47 100 74 176 89 53 11 61 16 64 37 5 41 11 51 28 45 9 -3 20 -6 25 -6z
m6263 -6 c3 -9 6 -24 6 -35 0 -13 7 -19 23 -19 72 0 197 -64 238 -121 20 -29
20 -31 4 -50 -26 -28 -40 -24 -76 20 -33 42 -91 75 -152 86 l-37 7 0 -105 0
-105 49 -12 c68 -16 135 -61 168 -112 24 -37 28 -53 27 -113 0 -54 -6 -79 -24
-110 -32 -55 -76 -101 -133 -140 -29 -20 -44 -36 -37 -40 6 -4 49 -8 96 -10
64 -2 90 -7 102 -19 16 -16 15 -19 -7 -37 -29 -24 -135 -26 -196 -4 -22 8 -41
15 -42 15 -1 0 -3 -30 -5 -67 -3 -63 -5 -68 -27 -71 -32 -5 -41 12 -41 81 0
64 -3 66 -71 42 -77 -28 -189 -18 -189 15 0 20 48 38 119 43 73 6 99 15 71 25
-26 9 -111 95 -135 137 -68 116 -46 246 55 320 17 13 58 31 91 41 l59 18 0 98
0 98 -25 0 c-42 0 -118 -45 -143 -85 -18 -29 -28 -36 -49 -33 -14 2 -31 11
-37 20 -22 36 106 138 200 159 52 12 54 13 54 46 0 30 3 33 29 33 17 0 31 -6
35 -16z m-6344 -1529 l24 -26 -25 -25 -25 -25 -23 25 c-23 24 -23 26 -7 51 21
31 27 31 56 0z m197 3 l21 -23 -24 -30 -25 -30 -25 29 -25 28 22 24 c28 29 30
30 56 2z m5973 -3 l23 -25 -23 -25 -24 -25 -28 27 -28 27 22 23 c27 29 29 29
58 -2z m208 3 l21 -23 -26 -29 -25 -29 -25 25 c-25 26 -25 26 -7 52 23 31 35
32 62 4z m-6035 -171 c32 -65 65 -97 140 -136 l58 -30 -58 -30 c-32 -16 -70
-42 -84 -58 -30 -31 -69 -100 -69 -120 0 -27 -18 -11 -40 37 -31 67 -91 125
-151 146 -27 10 -49 20 -49 24 0 3 24 16 53 30 64 30 126 91 151 148 10 23 20
42 21 42 2 0 14 -24 28 -53z m5668 -299 c124 -70 71 -268 -72 -268 -61 0 -105
25 -129 74 -26 54 -25 91 3 140 41 72 125 95 198 54z m-5028 -370 c-18 -57
-33 -105 -33 -108 0 -3 41 -23 90 -44 50 -22 90 -43 90 -47 0 -4 -24 -12 -52
-18 -135 -28 -160 -35 -163 -45 -2 -6 -16 -64 -31 -129 -14 -65 -30 -115 -34
-110 -4 4 -25 56 -46 115 -45 125 -29 117 -189 88 -60 -11 -110 -18 -112 -16
-2 2 41 43 96 91 56 48 101 88 101 90 0 1 -22 49 -50 106 -27 57 -47 105 -45
107 2 2 30 -10 62 -28 32 -18 79 -44 104 -59 l47 -25 56 42 c72 55 127 92 136
92 3 0 -9 -46 -27 -102z m4304 -67 c34 -16 126 -57 205 -91 79 -34 181 -78
227 -98 l85 -36 -45 -13 c-24 -7 -88 -22 -141 -33 -111 -24 -102 -12 -114
-158 -12 -151 -15 -152 -71 -32 -28 58 -53 113 -56 123 -8 21 -17 21 -136 2
-52 -9 -95 -14 -97 -12 -2 2 24 30 58 63 35 32 71 69 81 82 21 25 23 19 -50
165 -21 43 -29 67 -21 67 7 0 41 -13 75 -29z m-3782 -418 c66 -39 146 -84 178
-99 31 -16 57 -31 57 -35 0 -6 -64 -106 -75 -118 -2 -2 -10 12 -18 30 -8 19
-23 41 -33 51 -29 25 -115 68 -125 62 -18 -11 -51 -86 -41 -96 5 -5 42 -26 82
-47 46 -25 68 -41 60 -46 -7 -4 -22 -30 -35 -58 l-22 -50 -19 39 c-18 36 -85
93 -111 94 -6 0 -23 -21 -38 -46 -20 -34 -24 -48 -16 -58 11 -13 137 -78 174
-90 16 -5 16 -9 -8 -43 -14 -21 -25 -43 -25 -50 0 -17 -7 -16 -38 6 -50 35
-297 183 -319 192 -29 11 -30 29 -1 29 35 0 97 76 173 210 52 93 70 134 70
162 0 21 2 37 5 36 3 -2 59 -35 125 -75z m3395 -119 c86 -47 130 -122 130
-221 -1 -144 -104 -246 -247 -244 -138 2 -245 92 -260 220 -8 73 12 133 64
191 83 93 204 113 313 54z m-2547 -226 c3 -29 9 -88 13 -130 l7 -77 71 -14
c39 -9 91 -19 116 -24 l45 -9 -102 -49 c-57 -27 -103 -54 -103 -61 0 -7 9 -61
21 -120 11 -58 17 -109 14 -113 -4 -3 -46 36 -94 88 l-86 93 -103 -63 c-56
-34 -105 -60 -108 -57 -3 3 13 41 34 84 22 44 46 98 53 122 l12 43 -87 86
c-48 47 -85 87 -82 90 2 3 55 -9 116 -26 61 -17 115 -29 120 -26 5 3 34 52 66
110 31 58 60 105 64 105 4 0 10 -24 13 -52z m1619 -135 c24 -29 46 -52 51 -53
4 0 52 23 107 50 55 28 100 47 100 43 0 -3 -23 -49 -51 -101 l-50 -95 48 -44
c26 -24 63 -56 81 -70 39 -31 41 -46 5 -39 -16 2 -66 8 -113 11 l-85 6 -24
-113 c-29 -140 -36 -153 -51 -113 -19 50 -47 137 -59 183 -7 23 -15 42 -19 42
-4 0 -56 -9 -117 -20 -60 -11 -110 -18 -112 -16 -2 1 40 45 93 97 l96 94 -6
70 c-3 39 -8 102 -11 140 l-7 70 41 -45 c22 -25 60 -68 83 -97z m-788 20 c11
-26 46 -76 78 -110 67 -72 78 -95 78 -164 0 -63 -28 -118 -80 -160 -25 -20
-53 -57 -72 -96 l-31 -63 -23 57 c-16 40 -39 72 -73 103 -58 53 -76 82 -85
132 -12 66 9 114 84 193 45 48 73 86 81 114 7 22 15 41 18 41 3 0 15 -21 25
-47z"/>
<path d="M4655 7236 c-57 -26 -112 -82 -146 -147 -20 -37 -24 -59 -24 -144 0
-95 2 -103 33 -161 19 -34 46 -74 61 -88 33 -32 115 -64 154 -60 92 9 177 76
223 177 25 55 29 73 28 157 0 82 -4 102 -26 145 -68 132 -183 178 -303 121z"/>
<path d="M5771 6735 c-73 -130 -73 -129 -14 -151 26 -11 68 -18 92 -18 38 1
49 6 72 34 57 68 44 158 -30 204 -22 14 -47 26 -54 26 -8 0 -37 -43 -66 -95z"/>
<path d="M5615 6453 c-27 -49 -57 -103 -67 -121 -10 -18 -18 -35 -18 -38 0 -3
25 -16 55 -30 58 -27 114 -27 158 0 53 32 77 155 39 206 -19 25 -87 70 -108
70 -5 0 -32 -39 -59 -87z"/>
<path d="M3611 6276 c-12 -14 -11 -33 9 -216 6 -52 13 -115 16 -138 2 -24 9
-52 14 -63 13 -24 46 -25 54 -2 9 22 -34 404 -47 421 -13 16 -32 15 -46 -2z"/>
<path d="M4492 6273 c-5 -10 -12 -65 -15 -123 -4 -58 -9 -149 -13 -202 -6 -87
-5 -98 10 -104 34 -13 49 20 57 123 22 271 23 305 8 314 -22 13 -37 11 -47 -8z"/>
<path d="M4072 6228 c-7 -7 -12 -17 -12 -22 0 -11 -42 -141 -306 -938 -85
-256 -154 -473 -154 -482 0 -14 27 -16 213 -18 l212 -3 2 -544 c2 -454 0 -542
-11 -530 -7 7 -146 237 -309 509 -163 272 -301 501 -306 509 -8 12 -16 10 -45
-13 -20 -15 -36 -31 -36 -35 0 -8 398 -675 553 -928 32 -51 57 -97 57 -103 0
-6 -43 -10 -117 -10 l-118 1 -85 141 c-143 238 -514 836 -615 993 -29 44 -77
121 -109 170 l-56 90 35 30 36 31 -73 49 c-40 28 -108 76 -150 108 -43 31 -81
57 -84 57 -8 0 -4 -28 31 -215 15 -82 30 -153 34 -157 4 -4 24 6 44 23 21 17
43 29 50 26 13 -5 69 -93 292 -462 84 -137 236 -387 340 -555 103 -168 190
-311 192 -317 4 -10 -23 -13 -115 -13 l-121 0 -82 115 c-45 64 -85 117 -89
120 -4 3 -23 -3 -41 -13 -72 -36 -179 -10 -187 47 -4 26 7 27 51 1 25 -15 43
-19 64 -14 36 9 73 33 73 48 -1 24 -61 108 -75 103 -16 -7 -171 -109 -204
-135 l-24 -19 77 -114 c42 -63 76 -120 76 -126 0 -8 -108 -10 -411 -6 -434 5
-444 4 -434 -41 2 -11 7 -61 10 -111 18 -267 128 -558 318 -840 134 -198 382
-429 593 -553 35 -20 64 -41 64 -45 0 -4 -56 -65 -125 -136 -69 -70 -125 -133
-125 -140 0 -8 307 -11 1215 -11 668 0 1215 4 1215 8 0 5 -63 68 -141 141
l-140 134 85 52 c396 241 689 609 836 1045 60 181 99 462 67 489 -11 8 -120
10 -426 7 -226 -2 -411 -2 -411 -1 0 2 38 60 85 129 l86 125 -68 43 c-137 89
-170 108 -181 108 -7 0 -24 -25 -39 -55 -26 -53 -26 -55 -9 -74 29 -32 79 -37
122 -12 24 15 40 19 47 12 15 -15 1 -39 -35 -61 -42 -26 -91 -25 -145 1 -24
12 -45 20 -47 18 -2 -2 -34 -47 -71 -99 -107 -150 -91 -140 -218 -140 -83 0
-108 3 -104 13 2 6 78 134 167 282 172 285 297 494 364 610 123 211 271 455
277 455 3 0 26 -16 50 -35 24 -19 47 -31 50 -27 3 4 11 43 17 87 7 44 19 120
28 168 8 48 14 94 12 102 -3 13 -169 -93 -260 -166 l-40 -31 31 -32 c17 -18
28 -36 24 -40 -5 -4 -19 -27 -33 -51 -39 -68 -125 -211 -186 -310 -31 -49
-169 -277 -307 -505 -138 -228 -266 -439 -284 -467 l-34 -53 -115 0 -116 0 23
38 c25 41 294 502 467 799 62 105 112 198 112 205 0 7 -16 23 -35 35 l-34 22
-18 -22 c-10 -13 -49 -77 -86 -143 -84 -147 -86 -149 -119 -202 -16 -24 -28
-45 -28 -48 0 -3 -37 -67 -81 -142 -45 -75 -93 -157 -107 -182 -52 -94 -174
-305 -178 -309 -2 -2 -4 244 -4 547 l0 552 210 0 c193 0 210 1 210 18 0 18
-462 1410 -477 1436 -7 13 -12 13 -21 4z m-26 -495 c-4 -12 -12 -23 -20 -23
-10 0 -12 10 -5 43 4 23 11 51 16 62 6 16 9 12 11 -19 2 -22 1 -50 -2 -63z
m114 -35 c0 -16 -4 -28 -9 -28 -11 0 -21 36 -21 75 l1 30 14 -25 c8 -14 14
-37 15 -52z m28 -202 c33 -17 40 -34 21 -53 -9 -9 -21 -7 -50 8 -21 10 -54 19
-74 19 -20 0 -53 -9 -74 -19 -29 -15 -41 -17 -50 -8 -23 23 -2 48 59 68 37 12
132 4 168 -15z m-198 -199 l95 -63 96 63 c53 35 101 63 107 63 9 0 22 -23 22
-40 0 -5 -24 -25 -52 -46 -29 -21 -66 -48 -81 -61 l-28 -22 121 -81 c67 -45
124 -88 127 -96 3 -9 -1 -23 -10 -31 -14 -15 -28 -8 -155 75 -77 51 -142 92
-146 92 -3 0 -70 -43 -149 -95 -128 -86 -143 -94 -154 -78 -7 9 -13 22 -13 28
0 6 51 46 114 88 62 42 119 83 125 91 10 12 -1 23 -63 65 -41 28 -77 55 -81
61 -9 14 4 50 18 50 7 -1 55 -29 107 -63z m96 -377 c32 0 61 7 83 21 31 19 35
19 50 4 15 -15 14 -18 -9 -35 -56 -44 -149 -52 -217 -19 -44 21 -52 36 -31 57
9 9 19 7 43 -8 21 -13 50 -20 81 -20z m1776 -1465 c9 -10 -29 -192 -61 -290
-84 -254 -275 -552 -482 -751 -289 -277 -657 -463 -1024 -518 -114 -18 -382
-13 -490 7 -298 57 -567 185 -836 398 -258 205 -495 538 -609 858 -39 109 -82
286 -72 295 7 7 3567 8 3574 1z"/>
<path d="M2566 3353 c-1 -2 -40 -3 -87 -5 -89 -2 -122 -15 -88 -36 15 -9 20
-8 29 6 9 13 10 10 6 -18 -3 -19 -3 -30 0 -24 8 19 43 4 41 -18 -1 -15 -6 -18
-25 -13 -22 6 -23 5 -8 -10 9 -9 20 -13 26 -10 5 3 10 -1 10 -9 0 -9 5 -16 11
-16 5 0 7 5 3 12 -4 6 -3 8 3 5 11 -7 10 -43 -2 -54 -4 -5 -5 -3 -1 4 9 17
-33 28 -48 13 -8 -10 -8 -11 2 -5 8 4 21 -1 34 -15 16 -17 22 -19 29 -8 12 19
11 1 -1 -23 -7 -12 -7 -19 -1 -19 5 0 13 9 16 21 4 11 9 18 12 15 3 -2 -2 -19
-11 -37 -15 -29 -15 -35 -1 -48 8 -8 17 -12 20 -9 3 3 0 12 -8 20 -12 12 -13
17 -1 33 13 17 14 16 15 -16 1 -19 1 -38 0 -43 -1 -5 6 -5 16 -2 14 6 13 2 -4
-14 -13 -11 -23 -26 -23 -33 0 -8 3 -7 9 2 7 11 14 9 36 -15 17 -18 25 -22 21
-11 -8 25 6 20 28 -9 18 -26 18 -26 -3 -19 -16 5 -21 2 -21 -13 0 -11 7 -23
16 -26 25 -9 27 -7 13 11 -13 15 -12 15 9 2 12 -8 18 -15 12 -17 -5 -2 -7 -15
-4 -28 5 -20 3 -23 -12 -18 -11 4 -16 4 -13 0 10 -11 50 -16 44 -5 -4 5 -1 9
4 9 19 0 12 -22 -9 -27 -11 -3 -20 -13 -19 -22 0 -11 2 -12 6 -3 4 10 8 10 19
1 11 -9 14 -8 14 5 0 9 5 16 11 16 6 0 9 -7 5 -15 -7 -18 5 -19 24 -2 12 10
12 9 3 -3 -11 -16 7 -76 20 -64 3 4 1 16 -5 28 -8 17 -8 19 3 9 18 -17 21 -73
4 -67 -7 3 -16 1 -19 -4 -3 -5 7 -9 22 -10 42 0 43 -1 33 -20 -7 -14 -5 -21
10 -30 12 -8 19 -23 19 -41 0 -17 4 -32 9 -35 10 -7 21 17 20 42 0 14 -2 13
-8 -3 -7 -18 -8 -17 -13 6 -4 23 -2 25 31 25 20 1 28 -1 19 -3 -10 -3 -18 -9
-18 -14 0 -6 4 -8 8 -5 4 2 9 -4 9 -15 1 -11 -2 -17 -6 -15 -4 3 -7 -6 -7 -19
0 -13 3 -22 7 -19 7 4 22 -34 20 -49 -1 -5 3 -6 9 -2 6 3 8 11 5 16 -4 5 -1 9
4 9 6 0 11 -6 11 -12 0 -10 2 -10 8 0 6 9 12 5 22 -13 11 -21 12 -28 1 -34
-10 -6 -9 -10 4 -14 9 -4 14 -3 12 1 -3 4 0 16 4 27 7 14 8 6 4 -27 -4 -42 -2
-47 15 -45 11 1 20 5 20 9 0 4 5 8 11 8 6 0 9 -7 5 -15 -3 -8 -1 -15 4 -15 6
0 10 5 10 11 0 5 5 7 11 3 8 -4 8 -9 0 -17 -14 -14 -15 -50 -1 -42 6 3 10 2
10 -4 0 -10 31 -7 50 4 6 3 10 1 10 -4 0 -6 -6 -11 -14 -11 -8 0 -18 -5 -22
-12 -4 -7 -3 -8 4 -4 7 4 12 1 12 -6 0 -9 3 -9 10 2 6 9 10 11 10 3 0 -7 7
-10 15 -7 10 4 13 0 10 -15 -2 -13 3 -25 16 -31 13 -7 19 -7 19 0 0 5 -7 10
-15 10 -9 0 -12 6 -8 16 4 11 8 12 13 4 4 -7 12 -10 17 -7 6 4 8 -4 5 -20 -3
-18 -1 -24 7 -19 6 4 11 1 11 -9 0 -9 5 -13 10 -10 6 3 10 1 10 -5 0 -6 5 -8
10 -5 6 3 10 1 10 -5 0 -6 5 -8 10 -5 6 3 10 1 10 -6 0 -8 4 -8 15 1 13 11 14
10 9 -3 -6 -18 39 -53 56 -42 5 3 10 1 10 -4 0 -13 104 -61 220 -102 159 -57
309 -80 505 -80 260 0 477 50 715 164 120 57 163 85 155 98 -4 5 2 6 11 2 14
-5 16 -3 11 12 -6 15 -5 16 8 5 13 -11 14 -10 8 6 -6 17 -5 17 10 5 20 -16 23
-2 5 18 -10 11 -10 13 0 7 7 -4 12 -2 12 6 1 9 5 7 14 -5 11 -15 15 -15 25 -3
8 10 9 16 1 21 -6 3 -8 11 -4 16 4 6 10 6 19 -1 9 -8 14 -6 19 5 3 8 0 15 -6
15 -18 0 0 13 22 17 21 3 28 -12 10 -20 -6 -3 -5 -4 2 -3 7 2 13 9 13 18 0 8
8 23 18 32 21 21 14 36 -13 31 -12 -2 -18 0 -15 6 4 5 11 7 16 4 5 -4 9 2 10
12 0 15 2 14 9 -4 6 -15 15 -20 30 -16 19 5 20 6 3 20 -10 8 -13 12 -6 8 7 -3
18 3 25 15 7 11 20 20 28 20 12 -1 11 -3 -2 -11 -10 -5 -18 -17 -18 -24 0 -11
5 -10 20 5 12 12 17 26 13 37 -5 12 -2 15 10 10 14 -5 15 -4 4 13 -6 11 -13
16 -15 10 -2 -5 -8 -10 -14 -10 -6 0 -6 6 2 15 10 12 15 12 35 -1 21 -14 25
-13 45 8 11 12 16 24 10 26 -5 2 -10 8 -10 14 0 6 7 8 15 5 8 -4 17 -1 21 5 4
6 3 8 -4 4 -5 -3 -12 0 -15 6 -3 10 -7 10 -20 -1 -23 -18 -21 -9 3 19 11 13
20 18 20 11 0 -7 4 -10 9 -6 6 3 15 -3 21 -12 10 -16 11 -16 7 4 -3 15 1 23
14 26 11 3 19 12 19 21 0 9 5 16 11 16 6 0 9 6 6 14 -3 8 0 17 7 19 7 3 12 20
11 40 0 20 3 33 7 31 13 -8 9 21 -4 35 -9 10 -9 12 -1 7 11 -6 43 -62 43 -74
0 -3 -6 3 -14 13 -13 18 -14 18 -9 -8 4 -22 8 -25 19 -16 8 6 14 20 14 31 0
10 4 17 8 14 5 -3 8 5 7 17 -1 12 7 28 17 35 11 8 17 19 15 25 -2 7 2 17 9 24
16 16 28 17 18 1 -4 -7 -3 -8 4 -4 15 9 4 36 -14 36 -8 0 -14 7 -14 16 0 15 2
15 25 0 24 -16 55 -22 41 -8 -4 4 -13 7 -19 7 -7 0 -13 8 -15 18 -3 16 -1 17
16 8 12 -6 24 -11 27 -11 11 0 -5 54 -18 62 -8 5 -8 8 -1 8 6 0 14 -3 18 -7
12 -13 33 -11 33 3 0 9 -4 10 -11 5 -7 -6 -17 -3 -26 7 -13 14 -12 15 3 9 9
-3 19 -2 22 3 4 6 2 10 -4 10 -5 0 0 11 12 25 12 13 24 20 25 15 2 -6 8 -10
13 -10 4 0 6 7 3 15 -4 9 -13 13 -24 10 -14 -4 -17 0 -17 20 0 30 5 31 23 8 9
-12 13 -14 14 -5 0 7 5 10 10 7 6 -3 10 -1 10 5 0 6 -13 16 -30 21 -16 6 -28
15 -25 19 7 11 30 7 51 -10 16 -14 16 -13 5 8 -9 16 -9 27 -2 36 7 9 7 17 -2
26 -10 12 -9 12 5 1 19 -14 38 -7 38 15 0 8 5 14 10 14 6 0 10 7 10 15 0 8 -5
15 -11 15 -5 0 -7 5 -4 10 4 6 12 7 18 4 7 -4 9 -4 5 1 -4 4 -3 14 3 21 9 11
-214 13 -1273 14 -705 0 -1429 1 -1606 3 -178 1 -325 1 -326 0z m-156 -33 c0
-5 -2 -10 -4 -10 -3 0 -8 5 -11 10 -3 6 -1 10 4 10 6 0 11 -4 11 -10z m37 -12
c-3 -8 -6 -5 -6 6 -1 11 2 17 5 13 3 -3 4 -12 1 -19z m3291 -21 c10 4 13 2 8
-5 -9 -15 -43 -11 -43 5 0 9 4 10 10 4 5 -5 16 -7 25 -4z m-1630 -96 c-3 -52
-5 -56 -28 -56 -24 0 -25 2 -23 59 2 61 17 84 41 64 9 -8 12 -30 10 -67z
m-904 -42 c43 -66 94 -110 174 -149 29 -14 52 -27 52 -30 0 -3 -21 -16 -47
-30 -71 -38 -144 -111 -182 -182 l-35 -65 -34 56 c-46 77 -105 136 -179 178
-35 19 -63 36 -63 38 0 2 32 21 70 41 74 39 137 100 171 167 11 20 23 37 27
37 4 0 25 -27 46 -61z m1833 7 c42 -70 101 -121 180 -158 l65 -31 -64 -35
c-78 -44 -146 -112 -189 -187 l-32 -57 -24 49 c-46 90 -100 145 -206 207 l-39
23 56 28 c78 39 129 86 172 156 20 32 40 59 43 59 4 0 21 -24 38 -54z m-1241
-37 c27 -40 28 -42 9 -55 -27 -20 -32 -18 -61 26 -48 73 2 101 52 29z m642 29
c13 -13 2 -39 -31 -75 -15 -17 -24 -20 -38 -12 -26 13 -24 32 7 68 28 33 43
38 62 19z m1192 -28 c0 -5 -2 -10 -4 -10 -3 0 -8 5 -11 10 -3 6 -1 10 4 10 6
0 11 -4 11 -10z m7 -42 c-3 -8 -6 -5 -6 6 -1 11 2 17 5 13 3 -3 4 -12 1 -19z
m-3044 -25 c-5 -12 -3 -14 7 -8 9 5 11 4 6 -4 -4 -6 -12 -9 -17 -6 -12 8 -12
35 1 35 5 0 6 -7 3 -17z m-16 -55 c-3 -8 -6 -5 -6 6 -1 11 2 17 5 13 3 -3 4
-12 1 -19z m1582 12 c80 -15 158 -59 229 -129 57 -56 63 -65 46 -72 -35 -12
-88 3 -124 36 -82 77 -203 108 -310 80 -70 -18 -99 -34 -150 -81 -28 -25 -47
-33 -94 -38 l-58 -6 32 40 c68 85 144 136 250 164 66 18 110 19 179 6z m1447
-37 c-7 -7 -26 7 -26 19 0 6 6 6 15 -2 9 -7 13 -15 11 -17z m-48 3 c-7 -8 -15
-12 -17 -11 -5 6 10 25 20 25 5 0 4 -6 -3 -14z m-2901 -48 c-3 -8 -6 -5 -6 6
-1 11 2 17 5 13 3 -3 4 -12 1 -19z m2850 -30 c-3 -8 -6 -5 -6 6 -1 11 2 17 5
13 3 -3 4 -12 1 -19z m-2820 -20 c-3 -7 -5 -2 -5 12 0 14 2 19 5 13 2 -7 2
-19 0 -25z m2828 -8 c-3 -5 -11 -10 -16 -10 -6 0 -7 5 -4 10 3 6 11 10 16 10
6 0 7 -4 4 -10z m-1378 -47 c121 -57 83 -233 -51 -235 -79 -2 -136 53 -136
130 0 46 24 82 72 105 42 21 71 21 115 0z m1353 7 c0 -5 -8 -10 -17 -10 -15 0
-16 2 -3 10 19 12 20 12 20 0z m0 -30 c0 -5 -4 -10 -10 -10 -5 0 -10 5 -10 10
0 6 5 10 10 10 6 0 10 -4 10 -10z m-2700 -44 c0 -3 -4 -8 -10 -11 -5 -3 -10
-1 -10 4 0 6 5 11 10 11 6 0 10 -2 10 -4z m787 -2 c26 -7 39 -34 21 -46 -23
-14 -105 -9 -112 7 -12 32 37 53 91 39z m1083 -9 c25 -30 4 -46 -52 -43 -42 2
-54 7 -56 22 -2 10 2 22 10 27 21 14 85 10 98 -6z m757 -20 c-8 -20 -37 -19
-37 1 0 14 3 14 15 4 12 -10 15 -9 15 5 0 10 3 16 6 12 4 -3 4 -13 1 -22z
m-24 -53 c-3 -12 -9 -19 -15 -16 -5 3 -15 1 -23 -6 -9 -8 -15 -8 -20 0 -4 6
-3 9 2 8 5 -2 19 7 32 19 28 26 32 25 24 -5z m-2564 -5 c0 -9 -2 -9 -5 0 -3 7
-13 9 -22 6 -14 -4 -14 -3 -2 5 16 12 30 7 29 -11z m71 -57 c0 -5 -5 -10 -11
-10 -5 0 -7 5 -4 10 3 6 8 10 11 10 2 0 4 -4 4 -10z m951 -35 c82 -70 130 -89
224 -89 99 -1 162 25 226 90 40 41 47 44 96 44 29 0 53 -4 53 -9 0 -20 -156
-155 -209 -180 -49 -23 -69 -26 -161 -26 -98 0 -110 2 -173 32 -63 30 -207
151 -207 175 0 4 22 8 49 8 44 0 55 -5 102 -45z m-971 5 c0 -5 -5 -10 -11 -10
-5 0 -7 5 -4 10 3 6 8 10 11 10 2 0 4 -4 4 -10z m37 -6 c-3 -3 -12 -4 -19 -1
-8 3 -5 6 6 6 11 1 17 -2 13 -5z m2363 -25 c0 -6 -4 -7 -10 -4 -5 3 -10 11
-10 16 0 6 5 7 10 4 6 -3 10 -11 10 -16z m25 12 c3 -5 1 -12 -5 -16 -5 -3 -10
1 -10 9 0 18 6 21 15 7z m-2351 -34 c5 -22 5 -22 -10 -2 -8 11 -23 19 -32 17
-14 -2 -14 -1 -3 7 20 13 38 4 45 -22z m46 -19 c0 -6 -6 -5 -15 2 -8 7 -15 14
-15 16 0 2 7 1 15 -2 8 -4 15 -11 15 -16z m-5 -28 c3 -5 1 -10 -4 -10 -6 0
-11 5 -11 10 0 6 2 10 4 10 3 0 8 -4 11 -10z m25 -30 c0 -5 -2 -10 -4 -10 -3
0 -8 5 -11 10 -3 6 -1 10 4 10 6 0 11 -4 11 -10z m783 -78 c15 -17 15 -20 -6
-50 -34 -49 -92 -40 -66 10 14 28 40 58 49 58 4 0 14 -8 23 -18z m612 -13 c29
-35 29 -62 1 -67 -18 -4 -65 41 -66 64 0 11 20 34 31 34 4 0 19 -14 34 -31z
m-1335 9 c0 -11 -12 -10 -30 2 -12 7 -10 9 8 7 12 0 22 -5 22 -9z m1030 -148
c0 -57 -1 -60 -24 -60 -21 0 -25 6 -31 46 -7 50 5 74 36 74 17 0 19 -8 19 -60z"/>
<path d="M3150 3056 c0 -31 -62 -86 -96 -86 -14 0 -22 -4 -19 -10 3 -5 15 -10
25 -10 26 0 90 -58 90 -81 0 -10 5 -19 10 -19 6 0 10 8 10 18 0 26 51 71 96
84 l39 12 -42 6 c-53 8 -93 43 -93 82 0 15 -4 28 -10 28 -5 0 -10 -11 -10 -24z"/>
<path d="M4990 3051 c0 -32 -53 -81 -89 -81 -12 0 -21 -4 -21 -10 0 -5 10 -10
23 -10 31 0 87 -55 87 -86 0 -14 4 -22 10 -19 6 3 10 14 10 25 0 25 65 80 96
80 14 0 22 4 19 10 -3 6 -15 10 -25 10 -29 0 -90 58 -90 86 0 13 -4 24 -10 24
-5 0 -10 -13 -10 -29z"/>
<path d="M4042 2748 c-28 -28 -2 -88 38 -88 40 0 66 60 38 88 -7 7 -24 12 -38
12 -14 0 -31 -5 -38 -12z"/>
<path d="M5707 3214 c-8 -14 18 -33 33 -24 8 5 9 9 1 14 -6 4 -11 4 -11 -1 0
-4 -4 -2 -9 6 -5 7 -11 9 -14 5z"/>
<path d="M2570 2920 c0 -5 5 -10 11 -10 5 0 7 5 4 10 -3 6 -8 10 -11 10 -2 0
-4 -4 -4 -10z"/>
<path d="M2590 2894 c0 -2 9 -8 20 -14 11 -6 20 -7 20 -2 0 6 -9 12 -20 15
-11 3 -20 3 -20 1z"/>
<path d="M2690 2784 c0 -3 7 -12 15 -20 16 -17 18 -14 9 10 -6 15 -24 23 -24
10z"/>
<path d="M2718 2683 c7 -3 16 -2 19 1 4 3 -2 6 -13 5 -11 0 -14 -3 -6 -6z"/>
<path d="M2900 2469 c0 -5 5 -7 10 -4 6 3 10 8 10 11 0 2 -4 4 -10 4 -5 0 -10
-5 -10 -11z"/>
<path d="M5165 2409 c-11 -16 -1 -19 13 -3 7 8 8 14 3 14 -5 0 -13 -5 -16 -11z"/>
<path d="M3132 5961 c-32 -20 -7 -45 68 -71 82 -27 124 -54 165 -102 30 -35
73 -119 100 -193 19 -50 41 -85 56 -85 5 0 13 8 18 18 7 14 4 38 -11 88 -54
180 -150 289 -297 335 -70 21 -80 22 -99 10z"/>
<path d="M4919 5947 c-79 -27 -139 -66 -179 -117 -74 -94 -142 -282 -112 -312
19 -19 45 2 60 48 53 155 97 227 170 277 22 16 72 39 111 51 83 26 85 28 76
55 -8 27 -41 27 -126 -2z"/>
<path d="M2729 5836 c-9 -20 -9 -29 1 -41 28 -34 87 5 64 43 -18 28 -52 27
-65 -2z"/>
<path d="M5360 5845 c-26 -32 13 -81 48 -59 34 22 22 74 -18 74 -10 0 -23 -7
-30 -15z"/>
<path d="M3133 5765 c-33 -33 -35 -38 -31 -87 7 -66 39 -98 99 -98 55 0 93 22
114 66 35 75 -19 154 -105 154 -35 0 -48 -6 -77 -35z"/>
<path d="M4874 5766 c-28 -28 -34 -42 -34 -76 0 -35 6 -48 35 -77 33 -33 39
-35 85 -31 60 6 86 27 100 79 21 76 -29 139 -108 139 -37 0 -50 -6 -78 -34z"/>
<path d="M2987 5664 c-4 -4 -7 -14 -7 -21 0 -10 11 -13 43 -11 29 2 42 8 42
18 0 16 -64 27 -78 14z"/>
<path d="M5107 5663 c-19 -18 -5 -33 31 -33 43 0 53 6 45 26 -5 14 -64 20 -76
7z"/>
<path d="M2416 5615 l-48 -46 44 -39 c23 -22 50 -39 58 -40 16 0 100 67 100
80 0 14 -77 90 -91 90 -8 0 -36 -20 -63 -45z"/>
<path d="M5617 5617 l-46 -43 43 -42 c23 -23 50 -42 59 -42 9 0 36 19 61 42
l44 42 -43 43 c-24 24 -50 43 -58 43 -8 0 -35 -19 -60 -43z"/>
<path d="M2789 5593 c-9 -2 -21 -16 -28 -30 -16 -36 8 -73 49 -73 50 0 69 66
28 94 -12 9 -25 15 -28 15 -3 -1 -12 -3 -21 -6z"/>
<path d="M5329 5593 c-9 -2 -21 -16 -28 -30 -10 -21 -9 -30 4 -50 23 -35 76
-29 89 10 16 43 -19 80 -65 70z"/>
<path d="M3237 5544 c-4 -4 -7 -34 -7 -66 0 -44 4 -60 16 -65 29 -11 38 12 28
73 -8 54 -21 73 -37 58z"/>
<path d="M4902 5530 c-5 -14 -9 -45 -8 -70 1 -38 4 -45 21 -45 17 0 20 8 23
50 2 32 -2 57 -12 70 -14 20 -15 20 -24 -5z"/>
<path d="M5114 5283 c-15 -26 -42 -74 -61 -106 -18 -32 -33 -59 -33 -60 0 -1
-43 -81 -95 -177 -71 -131 -91 -177 -83 -187 16 -20 26 -16 76 31 26 24 61 56
78 70 18 14 35 38 39 53 7 31 80 203 126 302 41 85 43 115 7 119 -22 3 -31 -4
-54 -45z"/>
<path d="M2975 5283 c19 -113 67 -359 72 -366 2 -4 11 -2 19 4 13 10 33 -5
120 -92 98 -98 105 -103 121 -86 16 16 16 21 -10 100 -15 46 -27 99 -27 118 0
28 -13 48 -66 109 -36 41 -98 114 -137 163 -79 97 -102 109 -92 50z"/>
<path d="M3400 5237 c-63 -31 -86 -48 -88 -64 -6 -40 32 -38 128 8 89 42 104
56 94 84 -10 24 -44 17 -134 -28z"/>
<path d="M4624 5265 c-12 -29 7 -47 90 -86 95 -44 112 -47 121 -19 9 29 1 37
-86 80 -84 43 -116 49 -125 25z"/>
<path d="M1980 5206 c0 -49 345 -785 424 -902 65 -98 133 -176 173 -199 l44
-26 37 21 c20 12 97 61 169 109 112 73 132 89 126 106 -11 37 -144 280 -166
304 -67 74 -765 601 -796 601 -6 0 -11 -6 -11 -14z m474 -486 c97 -121 233
-340 211 -340 -12 0 -355 469 -355 486 0 13 88 -75 144 -146z m231 -125 c44
-61 111 -193 102 -201 -9 -9 -129 188 -159 259 -14 32 10 8 57 -58z m-251 -40
c46 -68 160 -275 154 -280 -14 -14 -238 340 -238 375 0 17 33 -20 84 -95z"/>
<path d="M6015 5133 c-205 -147 -386 -284 -485 -367 -176 -147 -186 -159 -255
-302 -34 -72 -66 -140 -69 -151 -6 -18 16 -35 159 -127 l166 -106 57 33 c74
43 132 129 251 372 143 289 321 690 321 722 0 25 -26 12 -145 -74z m-245 -330
c-70 -125 -268 -418 -277 -409 -8 7 82 174 144 268 53 79 149 198 160 198 3 0
-10 -26 -27 -57z m-22 -235 c-59 -121 -167 -303 -175 -294 -3 3 26 70 65 148
71 145 149 274 159 264 3 -3 -19 -56 -49 -118z m-288 -26 c-28 -54 -62 -112
-76 -128 l-24 -29 21 55 c23 61 59 128 96 178 44 59 36 26 -17 -76z"/>
<path d="M3418 5043 c-63 -4 -89 -23 -68 -48 18 -22 172 -21 191 1 9 11 10 20
2 32 -11 18 -35 21 -125 15z"/>
<path d="M4624 5033 c-37 -38 -3 -54 103 -51 83 3 88 4 91 26 4 27 -3 30 -101
35 -59 3 -82 0 -93 -10z"/>
<path d="M1716 4775 c-9 -25 2 -39 52 -68 26 -15 90 -52 142 -82 52 -30 97
-55 101 -55 4 0 15 7 24 16 23 23 11 34 -142 125 -134 80 -166 91 -177 64z"/>
<path d="M6295 4739 c-50 -28 -97 -57 -106 -65 -8 -8 -20 -14 -25 -14 -21 -1
-67 -49 -61 -64 14 -35 48 -22 201 72 116 71 142 96 116 112 -24 15 -31 13
-125 -41z"/>
<path d="M1711 4551 c-22 -21 -41 -43 -41 -48 0 -13 74 -83 88 -83 7 0 33 19
58 42 l45 41 -43 44 c-23 24 -47 43 -54 43 -6 0 -30 -17 -53 -39z"/>
<path d="M3715 4571 c-7 -22 0 -39 74 -192 60 -126 74 -141 102 -113 19 20 19
21 -37 140 -31 65 -63 134 -71 152 -18 37 -58 45 -68 13z"/>
<path d="M4386 4563 c-40 -79 -116 -257 -116 -274 0 -21 30 -41 47 -31 10 6
108 210 133 278 13 33 2 54 -26 54 -16 0 -28 -9 -38 -27z"/>
<path d="M6327 4548 l-48 -41 43 -44 c23 -23 47 -43 53 -43 9 0 95 76 95 84 0
7 -80 86 -87 86 -5 0 -30 -19 -56 -42z"/>
<path d="M2152 4304 c-28 -20 -30 -69 -3 -84 32 -16 59 -12 76 14 24 36 -2 86
-44 86 -3 0 -17 -7 -29 -16z"/>
<path d="M5921 4301 c-25 -25 -26 -39 -5 -69 19 -27 55 -29 78 -4 44 49 -27
119 -73 73z"/>
<path d="M1747 4269 c-24 -18 -26 -27 -29 -107 l-3 -87 -58 -2 c-59 -2 -131
-32 -141 -60 -16 -40 50 -80 140 -86 l59 -4 3 -84 c3 -95 17 -119 67 -119 53
0 65 16 69 100 2 41 4 80 5 86 0 7 27 15 59 19 65 8 142 47 142 73 0 26 -61
62 -125 72 -32 5 -62 7 -66 4 -10 -6 -19 29 -17 66 3 105 -7 133 -53 144 -19
4 -35 0 -52 -15z"/>
<path d="M6330 4277 c-30 -15 -38 -42 -39 -132 l-1 -70 -54 -2 c-55 -2 -121
-28 -146 -58 -11 -13 -10 -19 10 -40 28 -30 74 -46 140 -48 48 -2 50 -3 51
-32 4 -157 11 -175 63 -175 56 0 67 16 73 110 3 47 9 88 14 91 5 3 30 6 56 8
73 3 152 52 140 85 -11 27 -86 57 -148 59 l-59 2 -1 40 c-1 101 -9 140 -30
158 -25 20 -36 21 -69 4z"/>
<path d="M2836 4144 c-76 -51 -145 -99 -153 -107 -13 -13 -8 -20 47 -56 35
-23 69 -40 76 -37 11 4 209 131 223 142 5 5 -40 144 -48 147 -3 2 -68 -38
-145 -89z"/>
<path d="M5150 4168 c-15 -41 -19 -67 -13 -76 11 -18 213 -151 230 -152 15 0
123 72 123 82 0 10 -298 208 -314 208 -2 0 -13 -28 -26 -62z"/>
<path d="M2296 4061 c-9 -9 -16 -22 -16 -28 0 -6 53 -55 118 -108 64 -54 119
-102 121 -108 2 -6 -14 -8 -45 -4 -324 38 -374 41 -391 24 -32 -31 2 -49 124
-63 59 -7 193 -22 296 -34 202 -24 228 -22 206 10 -17 23 -346 303 -376 318
-16 9 -24 8 -37 -7z"/>
<path d="M5715 3988 c-253 -228 -270 -246 -258 -259 10 -10 39 -9 140 5 194
26 333 44 388 50 27 4 56 13 64 21 14 13 13 17 -5 35 -17 18 -26 19 -79 10
-107 -17 -327 -41 -332 -37 -2 3 36 39 85 80 119 101 157 144 141 163 -23 28
-54 12 -144 -68z"/>
<path d="M1746 3564 c-24 -24 -20 -61 10 -80 24 -16 27 -16 52 3 34 25 39 49
16 74 -21 23 -57 25 -78 3z"/>
<path d="M6327 3562 c-37 -41 -12 -86 45 -80 25 2 35 9 42 30 18 53 -50 91
-87 50z"/>
<path d="M1920 3316 c-19 -8 -62 -21 -95 -31 -122 -34 -151 -53 -123 -81 14
-14 28 -12 144 21 71 20 137 44 147 53 16 14 16 16 1 34 -20 21 -27 21 -74 4z"/>
<path d="M6153 3314 c-21 -9 -15 -44 10 -54 44 -18 217 -62 249 -63 29 -2 33
1 33 23 0 22 -9 27 -107 57 -119 35 -166 45 -185 37z"/>
<path d="M1937 2980 c-72 -57 -26 -180 66 -180 22 0 72 30 89 55 11 15 9 71
-3 98 -22 48 -106 63 -152 27z"/>
<path d="M6102 2990 c-23 -10 -52 -64 -52 -99 0 -31 47 -80 84 -87 95 -17 155
98 87 167 -31 31 -73 37 -119 19z"/>
<path d="M2110 2675 c-95 -53 -110 -69 -86 -93 13 -13 25 -9 103 33 98 53 134
81 127 100 -9 23 -53 11 -144 -40z"/>
<path d="M5907 2723 c-12 -3 -17 -12 -15 -26 2 -15 28 -37 83 -70 99 -59 124
-66 141 -42 7 10 11 22 8 26 -5 9 -191 120 -196 118 -2 -1 -11 -3 -21 -6z"/>
<path d="M2304 2368 c-22 -10 -44 -47 -44 -74 0 -8 11 -26 24 -39 20 -20 31
-24 58 -19 66 12 88 74 43 119 -26 27 -47 30 -81 13z"/>
<path d="M5790 2373 c-43 -16 -66 -74 -42 -109 10 -15 47 -34 67 -34 24 0 65
46 65 73 0 44 -51 84 -90 70z"/>
<path d="M2624 2104 c-35 -38 -67 -77 -70 -87 -7 -22 12 -47 37 -47 23 0 131
148 127 174 -6 38 -31 27 -94 -40z"/>
<path d="M5433 2144 c-7 -19 7 -47 64 -118 33 -43 50 -56 66 -54 36 5 31 39
-12 97 -67 90 -103 113 -118 75z"/>
<path d="M2835 2018 c-43 -51 -51 -76 -32 -95 15 -16 18 -15 41 6 13 12 32 37
42 56 15 28 16 36 5 49 -19 22 -26 20 -56 -16z"/>
<path d="M5254 2026 c-8 -20 21 -77 50 -98 23 -16 25 -16 42 3 17 19 16 21
-13 62 -32 44 -69 59 -79 33z"/>
<path d="M3650 1573 c-31 -22 -25 -82 12 -102 23 -13 30 -13 52 -1 45 24 47
92 3 106 -37 13 -45 13 -67 -3z"/>
<path d="M4039 1572 c-15 -13 -22 -30 -22 -52 0 -38 23 -60 63 -60 55 0 80 70
40 110 -25 25 -51 25 -81 2z"/>
<path d="M4421 1566 c-21 -25 -9 -79 21 -95 25 -14 29 -14 55 5 34 26 40 48
19 79 -19 29 -75 35 -95 11z"/>
<path d="M6475 5982 c-130 -45 -128 -41 -50 -101 37 -28 71 -51 76 -51 4 0 12
12 17 28 6 15 22 55 35 90 16 39 21 62 14 62 -7 -1 -48 -13 -92 -28z"/>
<path d="M1460 5811 c29 -75 62 -141 69 -141 3 1 30 23 59 49 40 37 50 50 40
58 -12 10 -174 83 -183 83 -3 0 4 -22 15 -49z"/>
<path d="M865 4009 c-35 -10 -93 -63 -106 -97 -23 -61 0 -155 53 -212 35 -38
94 -81 101 -73 4 3 7 93 7 200 0 208 3 199 -55 182z"/>
<path d="M988 4013 c-6 -26 -2 -373 5 -373 4 0 27 18 52 41 89 82 111 190 55
267 -17 23 -32 42 -34 42 -2 0 -20 7 -40 15 -20 8 -37 12 -38 8z"/>
<path d="M7100 4004 c-100 -43 -133 -138 -83 -239 19 -38 90 -112 126 -131
l27 -15 0 201 c0 223 3 216 -70 184z"/>
<path d="M7240 3825 l0 -194 35 20 c19 12 55 43 80 71 74 82 83 166 24 232
-32 37 -84 66 -118 66 -21 0 -21 -4 -21 -195z"/>
<path d="M1186 2554 c-4 -10 -2 -22 3 -27 14 -14 43 0 39 20 -4 24 -34 28 -42
7z"/>
<path d="M6800 2315 c-20 -25 -8 -50 25 -50 21 0 31 5 33 18 4 21 -14 47 -33
47 -7 0 -18 -7 -25 -15z"/>
<path d="M1681 1906 c-16 -19 -11 -46 12 -60 25 -16 52 4 52 40 0 24 -5 30
-26 32 -14 2 -31 -4 -38 -12z"/>
<path d="M6296 1794 c-19 -19 -20 -36 -4 -52 24 -24 78 -8 78 24 0 17 -28 44
-45 44 -7 0 -21 -7 -29 -16z"/>
<path d="M5587 1330 c-37 -29 -51 -79 -37 -130 14 -53 76 -100 131 -100 116 0
149 168 46 230 -42 26 -107 26 -140 0z"/>
<path d="M3136 964 c-20 -51 17 -88 60 -59 28 18 29 23 8 53 -18 25 -59 29
-68 6z"/>
<path d="M4842 928 c-27 -27 -6 -68 35 -68 29 0 48 33 33 60 -12 22 -49 27
-68 8z"/>
<path d="M3992 895 c-50 -42 -42 -110 16 -138 34 -16 53 -15 85 2 46 25 56
101 17 136 -10 9 -33 18 -52 21 -27 5 -40 1 -66 -21z"/>
</g>
</svg>
